<svg xmlns="http://www.w3.org/2000/svg" width="111.069" height="77.05" viewBox="0 0 111.069 77.05">
  <g id="gear" transform="translate(-285.31 -21.839) rotate(-45)">
    <path id="Path_6" data-name="Path 6" d="M311.754,390.479a10.654,10.654,0,1,0,11.54,9.686A10.656,10.656,0,0,0,311.754,390.479Z" transform="translate(-129.383 -129.423)" fill="none"/>
    <path id="Path_7" data-name="Path 7" d="M710.715,617.636a7.463,7.463,0,0,0-2.542,9.893,7.376,7.376,0,1,0,2.542-9.893Z" transform="translate(-492.307 -331.914)" fill="none"/>
    <path id="Path_8" data-name="Path 8" d="M207.77,279.951a25.468,25.468,0,0,0,1.263-6.073l-4.188-2.028c.005-.679-.02-1.362-.08-2.05-.017-.238-.049-.471-.076-.707l3.94-2.49a25.53,25.53,0,0,0-1.927-5.891l-4.654.338a21.13,21.13,0,0,0-1.513-2.314l2.166-4.119a26.084,26.084,0,0,0-4.62-4.135l-3.858,2.616a21.9,21.9,0,0,0-2.464-1.251l-.183-4.649a25.685,25.685,0,0,0-6.071-1.268l-2.029,4.192c-.679-.006-1.358.021-2.049.079-.239.021-.474.051-.708.079l-2.487-3.944a25.8,25.8,0,0,0-5.895,1.93l.339,4.654a20.869,20.869,0,0,0-2.312,1.514l-4.122-2.167a25.849,25.849,0,0,0-4.133,4.623l2.618,3.856a21.129,21.129,0,0,0-1.254,2.461l-4.651.183a25.548,25.548,0,0,0-1.263,6.073l4.19,2.028c0,.68.018,1.362.077,2.05.021.238.051.47.082.707l-3.944,2.488a25.838,25.838,0,0,0,1.929,5.891l4.651-.337a21.647,21.647,0,0,0,1.513,2.313l-2.167,4.118a25.815,25.815,0,0,0,4.622,4.136l3.856-2.616a21,21,0,0,0,2.464,1.254l.184,4.65a25.633,25.633,0,0,0,6.068,1.265l2.035-4.19c.676,0,1.361-.019,2.049-.078.236-.019.471-.052.7-.081l2.488,3.947a25.894,25.894,0,0,0,5.9-1.928l-.336-4.655a22.519,22.519,0,0,0,2.312-1.514l4.12,2.166a26,26,0,0,0,4.132-4.622L201.87,282.6a22.84,22.84,0,0,0,1.252-2.465ZM183.3,286.857a15.188,15.188,0,1,1,15.187-15.188A15.2,15.2,0,0,1,183.3,286.857Z" fill="#fff"/>
    <path id="Path_9" data-name="Path 9" d="M269.02,371.5a14.1,14.1,0,1,0,14.1-14.1A14.118,14.118,0,0,0,269.02,371.5Zm24.716-.927a10.655,10.655,0,1,1-11.54-9.686A10.655,10.655,0,0,1,293.736,370.577Z" transform="translate(-99.825 -99.834)" fill="#fff"/>
    <path id="Path_10" data-name="Path 10" d="M661.677,585.138a12.088,12.088,0,1,0,12.337-11.831A12.1,12.1,0,0,0,661.677,585.138Zm18.452-3.7a7.376,7.376,0,1,1-12.772,7.379,7.463,7.463,0,0,1,2.542-9.893A7.376,7.376,0,0,1,680.13,581.436Z" transform="translate(-447.956 -289.665)" fill="#fff"/>
    <path id="Path_11" data-name="Path 11" d="M629.466,523.561a19.8,19.8,0,0,0-.043-4.24l-3.288-.786a17.586,17.586,0,0,0-.724-2.565l2.41-2.378a19.179,19.179,0,0,0-.982-1.886,18.985,18.985,0,0,0-1.179-1.764l-3.244.97a16.4,16.4,0,0,0-1.9-1.869l.9-3.261a19.747,19.747,0,0,0-3.7-2.081l-2.33,2.464a16.637,16.637,0,0,0-2.573-.664l-.861-3.282a19.389,19.389,0,0,0-4.232.052l-.793,3.287a16.1,16.1,0,0,0-2.559.723l-2.38-2.408a18.684,18.684,0,0,0-1.885.977,19.834,19.834,0,0,0-1.764,1.175l.966,3.25a16.783,16.783,0,0,0-1.866,1.9l-3.261-.9a19.546,19.546,0,0,0-2.08,3.689l2.461,2.332a16.772,16.772,0,0,0-.659,2.574l-3.278.86a19.568,19.568,0,0,0,.044,4.237l3.293.783a16.944,16.944,0,0,0,.717,2.568l-2.408,2.377a18.182,18.182,0,0,0,.978,1.88,19.4,19.4,0,0,0,1.179,1.767l3.249-.967a16.666,16.666,0,0,0,1.9,1.864l-.894,3.265a19.392,19.392,0,0,0,3.686,2.075l2.335-2.459a15.821,15.821,0,0,0,2.575.661l.858,3.281a19.9,19.9,0,0,0,4.237-.045l.783-3.291a16.233,16.233,0,0,0,2.564-.722l2.388,2.409a18.577,18.577,0,0,0,1.878-.977,19.433,19.433,0,0,0,1.763-1.181l-.966-3.244a16.679,16.679,0,0,0,1.865-1.9l3.263.895a19.29,19.29,0,0,0,2.076-3.69l-2.461-2.335a16.378,16.378,0,0,0,.663-2.57Zm-19.688,10.692a12.611,12.611,0,1,1,12.874-12.344A12.624,12.624,0,0,1,609.778,534.253Z" transform="translate(-384.236 -225.918)" fill="#fff"/>
  </g>
</svg>
