<svg id="instagram-sketched" xmlns="http://www.w3.org/2000/svg" width="51.99" height="52" viewBox="0 0 51.99 52">
  <path id="Path_1" data-name="Path 1" d="M52.306,15.288A19,19,0,0,0,51.1,8.98a13.321,13.321,0,0,0-7.609-7.608A19.05,19.05,0,0,0,37.181.163C34.4.031,33.514,0,26.454,0S18.51.031,15.737.152A19.006,19.006,0,0,0,9.429,1.361,12.688,12.688,0,0,0,4.817,4.368a12.8,12.8,0,0,0-3,4.6A19.052,19.052,0,0,0,.611,15.278C.479,18.062.449,18.945.449,26.005S.479,33.949.6,36.722A19,19,0,0,0,1.81,43.031a13.318,13.318,0,0,0,7.608,7.608,19.052,19.052,0,0,0,6.308,1.209C18.5,51.97,19.384,52,26.444,52s7.944-.03,10.717-.152a19,19,0,0,0,6.308-1.209,13.3,13.3,0,0,0,7.609-7.608,19.065,19.065,0,0,0,1.209-6.308c.122-2.773.152-3.657.152-10.717s-.01-7.944-.132-10.717ZM47.624,36.519a14.253,14.253,0,0,1-.894,4.825,8.626,8.626,0,0,1-4.937,4.937,14.3,14.3,0,0,1-4.825.894c-2.743.122-3.565.152-10.5.152s-7.771-.03-10.5-.152a14.246,14.246,0,0,1-4.825-.894,8,8,0,0,1-2.986-1.94,8.085,8.085,0,0,1-1.94-2.986,14.306,14.306,0,0,1-.894-4.825c-.122-2.743-.152-3.566-.152-10.5s.03-7.771.152-10.5A14.245,14.245,0,0,1,6.208,10.7,7.9,7.9,0,0,1,8.159,7.71a8.072,8.072,0,0,1,2.986-1.94,14.313,14.313,0,0,1,4.825-.894c2.743-.122,3.566-.152,10.5-.152s7.771.031,10.5.152A14.253,14.253,0,0,1,41.8,5.77a8,8,0,0,1,2.986,1.94A8.083,8.083,0,0,1,46.73,10.7a14.311,14.311,0,0,1,.894,4.825c.122,2.743.152,3.565.152,10.5s-.031,7.751-.152,10.494Zm0,0" transform="translate(-0.449 0)" fill="#fff"/>
  <path id="Path_2" data-name="Path 2" d="M138.307,124.5a13.358,13.358,0,1,0,13.358,13.358A13.361,13.361,0,0,0,138.307,124.5Zm0,22.023a8.665,8.665,0,1,1,8.665-8.665,8.666,8.666,0,0,1-8.665,8.665Zm0,0" transform="translate(-112.302 -111.853)" fill="#fff"/>
  <path id="Path_3" data-name="Path 3" d="M368.687,91.72a3.119,3.119,0,1,1-3.119-3.119A3.119,3.119,0,0,1,368.687,91.72Zm0,0" transform="translate(-325.677 -79.601)" fill="#fff"/>
</svg>
