<svg xmlns="http://www.w3.org/2000/svg" width="60.168" height="60.168" viewBox="0 0 60.168 60.168">
  <g id="phone" transform="matrix(-0.391, -0.921, 0.921, -0.391, 8.866, 71.601)">
    <g id="Group_5" data-name="Group 5" transform="translate(6.983 12.811)">
      <path id="Path_12" data-name="Path 12" d="M42.2,30.119a26.053,26.053,0,0,1-8.182-1.3,3.74,3.74,0,0,0-3.637.767l-5.159,3.895A28.513,28.513,0,0,1,12.406,20.66l3.78-5.025a3.709,3.709,0,0,0,.912-3.758,26.092,26.092,0,0,1-1.308-8.2A3.686,3.686,0,0,0,12.109,0H3.682A3.686,3.686,0,0,0,0,3.682a42.252,42.252,0,0,0,42.2,42.2A3.686,3.686,0,0,0,45.886,42.2V33.8A3.686,3.686,0,0,0,42.2,30.119Z" fill="#fff"/>
    </g>
  </g>
</svg>
